<?xml version="1.0" encoding="UTF-8"?>
<!-- Created with Inkscape (http://www.inkscape.org/) -->
<svg width="1170" height="270" version="1.1" viewBox="0 0 309.56 71.437" xml:space="preserve" xmlns="http://www.w3.org/2000/svg" xmlns:xlink="http://www.w3.org/1999/xlink"><defs><linearGradient id="linearGradient11" x1="138.54" x2="138.54" y1="62.663" y2="245.75" gradientUnits="userSpaceOnUse"><stop stop-color="#f8b06f" offset="0"/><stop stop-color="#ff9866" offset=".50172"/><stop stop-color="#ff694d" offset="1"/></linearGradient><linearGradient id="linearGradient12" x1="145.84" x2="220.78" y1="62.011" y2="41.929" gradientUnits="userSpaceOnUse"><stop stop-color="#2dbe66" offset="0"/><stop stop-color="#8ccb45" offset="1"/></linearGradient><linearGradient id="linearGradient13" x1="116.83" x2="139.55" y1="51.858" y2="67.768" gradientUnits="userSpaceOnUse"><stop stop-color="#b66a22" offset="0"/><stop stop-color="#8f4e16" offset="1"/></linearGradient><linearGradient id="linearGradient20" x1="95.448" x2="146.23" y1="153.05" y2="153.05" gradientUnits="userSpaceOnUse"><stop stop-color="#f9e1cc" stop-opacity=".99824" offset="0"/><stop stop-color="#f6d0b3" offset=".49655"/><stop stop-color="#f3c4a2" offset="1"/></linearGradient></defs><g transform="matrix(.26271 0 0 .26271 -4.3818 .53411)"><path d="m132.29 239.53c-6.2835-0.65001-16.264-4.8866-27.517-11.681-24.188-14.604-42.06-34.257-51.057-56.144-2.1171-5.1505-4.335-12.214-4.8992-15.603-0.08479-0.50933-0.37882-2.1167-0.65342-3.5719-0.93859-4.9741-1.1832-7.8784-1.1701-13.891 0.01128-5.1527 0.10863-6.5442 0.72403-10.349 1.2734-7.8734 2.951-13.623 5.876-20.14 1.9895-5.1366 5.3363-9.4434 8.3833-13.933 1.3318-1.9814 6.3104-7.4312 9.0746-9.7651 2.9233-2.4682 7.2821-5.4871 7.5908-5.6908 3.8741-2.5566 12.072-6.2215 12.835-6.4735 0.22014-0.07278 2.1913-0.75911 3.0309-0.91586 0.24031-0.04487 0.70548-0.1906 0.93002-0.2565 1.3862-0.40684 3.5812-1.0816 6.3559-1.5457 7.065-1.1819 9.0268-1.0424 17.346-0.05609 4.7061 0.55798 8.8899 2.3384 12.706 4.1788 3.7833 1.8248 8.6189 4.8407 8.637 5.2175 5e-3 0.10919-1.0918 0.74078-2.4379 1.4035-1.3461 0.66276-3.9357 2.2066-5.7547 3.4308-14.604 9.8283-26.166 25.725-32.229 44.312-2.7105 8.3099-3.9276 15.297-4.1941 24.077-0.14974 4.9332 0.07786 11.723 0.36583 10.914 0.06472-0.1819 0.29486-0.33073 0.51142-0.33073 0.2711 0 0.36726 0.21877 0.30868 0.70228-0.07908 0.65276-0.0091 0.70556 0.99197 0.74882 0.59238 0.0256 1.2175 0.13332 1.3891 0.23938 0.17238 0.10653 0.31202 0.0529 0.31202-0.11976 0-0.23713 0.09302-0.2354 0.38528 7e-3 0.21191 0.17587 0.50324 0.24686 0.64739 0.15777 0.15646-0.0967 0.30138 0.40072 0.35953 1.234 0.0536 0.76779 0.12071-1.2234 0.14919-4.4248 0.17252-19.396 5.3747-36.621 15.665-51.871 3.5534-5.2659 11.336-13.662 16.396-17.687 2.9625-2.3571 8.2434-5.867 11.377-7.5618 2.9352-1.5874 8.1124-3.8093 10.268-4.4066 8.5647-2.3736 10.192-2.602 18.572-2.6066 8.0391-0.0044 8.9242 0.1145 16.007 2.151 7.3704 2.1191 13.938 5.8028 19.956 11.194 2.3899 2.1406 6.1402 6.2247 7.3769 8.0333 0.41646 0.60905 1.2901 1.8813 1.9414 2.8272 3.9874 5.7906 7.1846 13.274 9.3831 21.96 1.0142 4.0074 1.2289 5.3598 1.5959 10.054 0.63696 8.1466 0.0412 16.846-1.6489 24.077-1.1802 5.0492-3.4334 11.964-5.102 15.658-1.9707 4.362-2.8484 6.1261-4.6555 9.3574-5.5836 9.9835-12.44 18.505-21.559 26.794-11.373 10.339-25.908 19.361-40.362 25.054-11.271 4.4394-17.962 5.8881-24.209 5.2419z" fill="url(#linearGradient11)"/><path d="m148.7 75.684c0-0.65221 4.3219-5.7028 8.1796-9.5587 5.7696-5.7669 12.142-10.514 19.866-14.798 3.4773-1.9288 10.17-4.9714 12.784-5.8116 0.55545-0.17855 0.95845-0.3761 0.89555-0.439-0.0629-0.0629-1.8836 0.3186-4.0461 0.84778-14.685 3.5936-26.035 9.9879-35.959 20.259-1.7462 1.8072-3.7366 4.0329-4.423 4.9461-1.233 1.6403-1.2503 1.6516-1.4301 0.93487-0.10014-0.399-0.0393-1.798 0.13527-3.109 0.93402-7.0153 3.2555-13.152 7.363-19.465 6.2792-9.6501 16.314-16.977 27.182-19.846 5.0964-1.3457 6.1037-1.4604 12.845-1.4633 6.7542-0.0029 7.9288 0.11968 12.776 1.333 6.3416 1.5874 16.363 6.0993 17.089 7.6942 0.57909 1.271-0.46367 4.2329-3.3371 9.4787-3.5832 6.5417-9.1772 13.209-14.08 16.781-2.3997 1.7483-6.8648 4.1454-9.7324 5.2248-2.6196 0.98602-7.5624 2.1641-10.414 2.4821-1.3966 0.15573-6.144 0.24745-10.702 0.20674-6.9525-0.0621-8.5691-2e-3 -10.689 0.39717-2.6812 0.50492-7.8833 1.9205-10.467 2.8482-2.7827 0.99921-3.8365 1.2897-3.8365 1.0577z" fill="url(#linearGradient12)"/><path d="m139.23 76.243c-0.18457-0.11715-0.68304-1.1153-1.1077-2.2182-1.9394-5.0365-4.7121-9.3757-8.3463-13.062-3.2923-3.3392-7.0236-5.7564-11.469-7.4295-2.2456-0.84525-3.4064-1.7644-3.7386-2.9602-1.1284-4.0626 1.7339-7.6684 5.8631-7.386 1.2537 0.08573 1.8037 0.30362 3.3073 1.3102 8.277 5.5411 15.618 16.414 17.831 26.41 0.57182 2.5829 0.65222 4.7784 0.19184 5.2387-0.35786 0.35786-2.02 0.42116-2.5316 0.09641z" fill="url(#linearGradient13)"/><path d="m140.47 78.871 5.8995 4.4359s-15.276 7.4204-27.156 23.218c-11.88 15.798-16.082 36.351-16.082 36.351s-2.0221 9.7947-1.7694 17.883c0.25276 8.0885 2.0853 20.379 2.812 23.318 0.7267 2.9384 3.7599 13.649 7.6146 21.232 3.8547 7.583 6.4771 12.322 8.3097 14.882 1.8326 2.5593 4.8973 6.8563 4.8973 6.8563s-12.972-15.919-16.726-23.337c-3.7534-7.4174-6.1663-13.673-6.1663-13.673s-3.3066-7.8642-4.7364-15.594c-1.4299-7.7302-2.4576-20.063-1.6086-26.497s1.2958-14.567 7.2834-28.374c5.9875-13.807 15.684-24.665 22.252-30.697 6.5684-6.0322 15.175-10.004 15.175-10.004z" fill="url(#linearGradient20)" style="mix-blend-mode:normal"/></g><g transform="translate(-31.448 -3.9321)"><path d="m257 24.729q0-0.98185 0.67179-1.6278 0.6718-0.64596 1.602-0.64596 0.95602 0 1.6278 0.64596 0.6718 0.64596 0.6718 1.6278v27.259l14.366 0.02584q0.95602 0 1.602 0.64596 0.64596 0.64596 0.64596 1.602 0 1.0077-0.64596 1.6536-0.64595 0.62012-1.602 0.62012h-16.95q-0.0258 0-0.0517 0 0-0.02584-0.0258-0.02584-0.82682-0.12919-1.3694-0.74931-0.5426-0.62012-0.5426-1.4728zm34.442 32.117q-2.6097 0-4.8834-0.98185-2.2738-1.0077-3.9791-2.713-1.6795-1.7053-2.6613-4.0049-0.98185-2.2996-0.98185-4.9093 0-2.6097 0.98185-4.9093 0.98185-2.2996 2.6613-4.0049 1.7053-1.7312 3.9791-2.713 2.2738-1.0077 4.8834-1.0077t4.8576 0.98185q2.2738 0.98185 3.9532 2.6872 1.6795 1.6795 2.6613 3.9532 0.98185 2.2738 1.0335 4.8576v10.284q0 0.98185-0.6718 1.6795-0.67179 0.67179-1.6536 0.67179-0.98186 0-1.602-0.67179-0.62012-0.69763-0.62012-1.6795l-0.0258-0.36174q-1.6278 1.3436-3.6432 2.0929t-4.2892 0.74931zm0-4.5734q1.7053 0 3.1523-0.62012 1.4469-0.64596 2.5063-1.7312 1.0852-1.111 1.6795-2.558 0.62012-1.4728 0.62012-3.1264t-0.62012-3.1006q-0.59428-1.4728-1.6795-2.558-1.0594-1.0852-2.5063-1.7053-1.4469-0.64596-3.1523-0.64596-1.6795 0-3.1264 0.64596-1.4469 0.62012-2.5063 1.7053t-1.6795 2.558q-0.62011 1.4469-0.62011 3.1006t0.62011 3.1264q0.62012 1.4469 1.6795 2.558 1.0594 1.0852 2.5063 1.7312 1.4469 0.62012 3.1264 0.62012zm17.208-27.414q0-0.49093 0.18086-0.90434 0.18087-0.43925 0.49093-0.74931 0.31006-0.3359 0.72347-0.51676 0.41341-0.18087 0.90434-0.18087 0.98185 0 1.602 0.69763 0.64596 0.67179 0.64596 1.6536v11.576q0.46508-1.0335 1.2919-1.912 0.85266-0.90434 1.912-1.5503 1.0852-0.64596 2.3254-1.0077 1.2661-0.36174 2.558-0.36174 2.6097 0 4.9093 1.0077 2.2996 0.98185 4.0049 2.713 1.7053 1.7053 2.6872 4.0049 0.98185 2.2996 0.98185 4.9093 0 2.6097-0.98185 4.9093-0.98185 2.2738-2.6872 3.9791-1.7053 1.7053-4.0049 2.713-2.2996 0.98185-4.9093 0.98185t-4.9093-0.98185q-2.2996-1.0077-4.0308-2.713-1.7053-1.7053-2.713-3.9791-0.98185-2.2996-0.98185-4.9093zm4.5734 19.379q0 1.6536 0.62012 3.1264 0.64596 1.4469 1.7312 2.5321 1.0852 1.0852 2.558 1.7312 1.4728 0.62012 3.1523 0.62012 1.6795 0 3.1523-0.62012 1.4728-0.64596 2.558-1.7312 1.0852-1.0852 1.7053-2.5321 0.62012-1.4728 0.62012-3.1264 0-1.6795-0.62012-3.1264-0.62011-1.4728-1.7053-2.558-1.0852-1.0852-2.558-1.7053-1.4728-0.62012-3.1523-0.62012-1.6795 0-3.1523 0.62012-1.4728 0.62012-2.558 1.7053-1.0852 1.0852-1.7312 2.558-0.62012 1.4469-0.62012 3.1264z" fill="#2a1f1b" aria-label="Lab"/><path d="m107.98 35.517v-0.23254q0-2.5838 0.93018-4.9868 0.93017-2.4288 2.558-4.1341 1.6536-1.7053 3.8757-2.6872 2.2479-1.0077 4.8576-1.0077 2.5838 0 4.8576 1.0077 2.2996 0.98185 4.0049 2.6872 1.7053 1.7053 2.6872 4.1341 1.0077 2.403 1.0077 4.9868 0 1.7312-0.46509 3.359-0.43925 1.602-1.2661 2.9972-0.80098 1.3953-1.9637 2.558-1.1369 1.1369-2.5322 1.9637-1.3953 0.82682-2.9972 1.2919-1.602 0.43925-3.3331 0.43925-2.3254 0-4.1858-0.93018-1.8345-0.93018-3.3073-2.3513l-0.10335 9.586q-0.0258 1.0077-0.64596 1.7053-0.62012 0.67179-1.6278 0.67179-0.98185 0-1.6795-0.67179-0.6718-0.69763-0.6718-1.7053zm12.377 7.674q1.6278 0 3.0747-0.62012 1.4728-0.64596 2.558-1.7312t1.7053-2.5321q0.64596-1.4469 0.64596-3.1006 0-1.6536-0.64596-3.0489-0.62011-1.4211-1.7053-2.5838-1.0852-1.1627-2.558-1.7312-1.4469-0.59428-3.0747-0.59428-1.6278 0-3.0489 0.62012-1.4211 0.62012-2.4805 1.8087-1.0594 1.1886-1.6795 2.6097t-0.62012 3.0489q0 1.6278 0.62012 3.0747 0.62012 1.4211 1.6795 2.4805 1.0594 1.0594 2.4805 1.6795 1.4211 0.62012 3.0489 0.62012zm19.792 3.1006q0.28422 1.3178 0.98185 2.4546 0.69764 1.111 1.7053 1.9379 1.0077 0.82682 2.2479 1.2919 1.2661 0.46509 2.6613 0.46509 1.3436 0 2.2221-0.23254 0.8785-0.25838 1.757-0.77515 0.72347-0.41341 1.3694-0.41341 0.46509 0 0.85267 0.20671 0.41341 0.18087 0.72347 0.51676 0.31006 0.31006 0.49092 0.74931 0.18087 0.43925 0.18087 0.90434 0 0.82682-0.62012 1.4728-0.62011 0.62012-1.6795 1.0594-1.0335 0.43925-2.4288 0.67179-1.3694 0.23254-2.868 0.23254-2.6097 0-4.9351-0.98185-2.2996-1.0077-4.0308-2.713-1.7053-1.7053-2.713-4.0049-0.98185-2.2996-0.98185-4.9093 0-2.6355 0.98185-4.9351 1.0077-2.2996 2.713-4.0049 1.7312-1.7053 4.0308-2.6872 2.3254-1.0077 4.9351-1.0077 2.5838 0 4.8834 0.98185 2.2996 0.98185 4.0049 2.6872 1.7312 1.7053 2.7389 4.0049 1.0077 2.2738 1.0335 4.8576 0 0.93018-0.62011 1.5503-0.62012 0.62012-1.602 0.62012zm15.58-3.8241q-0.23254-1.3953-0.95601-2.5838-0.69763-1.1886-1.757-2.0671-1.0335-0.8785-2.3771-1.3694-1.3178-0.49093-2.8164-0.49093-1.5245 0-2.8422 0.51676-1.3178 0.49093-2.3513 1.3953-1.0335 0.8785-1.7053 2.0671-0.6718 1.1886-0.90434 2.5321zm19.56 14.366q-2.6097 0-4.8834-0.98185-2.2738-1.0077-3.9791-2.713-1.6795-1.7053-2.6613-4.0049-0.98186-2.2996-0.98186-4.9093 0-2.6097 0.98186-4.9093 0.98185-2.2996 2.6613-4.0049 1.7053-1.7312 3.9791-2.713 2.2738-1.0077 4.8834-1.0077t4.8576 0.98185q2.2738 0.98185 3.9532 2.6872 1.6795 1.6795 2.6613 3.9532 0.98185 2.2738 1.0335 4.8576v10.284q0 0.98185-0.67179 1.6795-0.6718 0.67179-1.6536 0.67179t-1.602-0.67179q-0.62012-0.69763-0.62012-1.6795l-0.0258-0.36174q-1.6278 1.3436-3.6432 2.0929-2.0154 0.74931-4.2891 0.74931zm0-4.5734q1.7053 0 3.1523-0.62012 1.4469-0.64596 2.5063-1.7312 1.0852-1.111 1.6795-2.558 0.62012-1.4728 0.62012-3.1264t-0.62012-3.1006q-0.59428-1.4728-1.6795-2.558-1.0594-1.0852-2.5063-1.7053-1.4469-0.64596-3.1523-0.64596-1.6795 0-3.1264 0.64596-1.4469 0.62012-2.5063 1.7053-1.0594 1.0852-1.6795 2.558-0.62012 1.4469-0.62012 3.1006t0.62012 3.1264q0.62011 1.4469 1.6795 2.558 1.0594 1.0852 2.5063 1.7312 1.4469 0.62012 3.1264 0.62012zm16.046-7.9065q0-2.6613 0.98185-4.9868t2.6872-4.0566q1.7312-1.7312 4.0308-2.713 2.3254-1.0077 4.9868-1.0077 2.4805 0 4.7026 0.8785 2.2479 0.8785 3.8757 2.5063 0.41341 0.43925 0.62012 0.93018 0.20671 0.49093 0.20671 0.95601 0 0.51676-0.23255 0.95602-0.23254 0.41341-0.59428 0.69763-0.33589 0.28422-0.74931 0.43925-0.38757 0.15503-0.72347 0.15503-0.56844 0-1.0852-0.28422l-1.8087-1.2919q-1.1627-0.74931-2.2738-1.0077-1.111-0.28422-2.3513-0.28422-1.602 0.05168-2.9972 0.72347-1.3953 0.67179-2.4288 1.7828-1.0077 1.0852-1.602 2.5063-0.56844 1.4211-0.56844 2.9456 0 1.5503 0.56844 2.9972 0.59428 1.4469 1.6278 2.558 1.0594 1.0852 2.4805 1.757 1.4211 0.67179 3.1264 0.67179 1.1627 0 2.2479-0.25838 1.0852-0.28422 2.1704-1.0335l1.8087-1.2661q0.25838-0.12919 0.5426-0.20671 0.28422-0.10335 0.56844-0.10335 0.3359 0 0.72347 0.15503 0.41341 0.15503 0.74931 0.46509 0.3359 0.28422 0.5426 0.69763 0.23255 0.41341 0.23255 0.93018 0 0.49093-0.20671 0.98185-0.18087 0.49093-0.59428 0.90434-1.602 1.6278-3.8757 2.5063-2.2479 0.85266-4.7026 0.85266-2.6355 0-4.9351-0.95602-2.2996-0.98185-4.0308-2.6613t-2.7388-3.9532q-0.98185-2.2738-0.98185-4.8834zm45.32-0.46509v-0.10335q0-1.5761-0.49092-2.9714-0.49093-1.3953-1.3953-2.4288-0.90433-1.0594-2.1962-1.6536-1.2661-0.59428-2.8422-0.59428t-3.0489 0.56844q-1.4469 0.56844-2.5838 1.5761-1.1369 1.0077-1.8345 2.3771-0.6718 1.3694-0.6718 2.9456v10.645q0 0.95602-0.67179 1.6278-0.64595 0.64596-1.602 0.64596-0.98185 0-1.6536-0.64596-0.64595-0.67179-0.64595-1.6278v-29.43q0-0.49093 0.18087-0.90434 0.18086-0.43925 0.49092-0.74931 0.31006-0.31006 0.72347-0.49093 0.43925-0.18087 0.90434-0.18087t0.8785 0.18087 0.72347 0.49093q0.31006 0.31006 0.49093 0.74931 0.18086 0.41341 0.18086 0.90434v10.8q1.5503-1.8604 3.6174-2.9456 2.0929-1.0852 4.5217-1.0852 2.5063 0 4.625 0.95602 2.1187 0.95601 3.6174 2.6097 1.5245 1.6536 2.3771 3.8757t0.85266 4.7284v10.542q0 0.98185-0.67179 1.6278-0.6718 0.62012-1.6278 0.62012-0.93018 0-1.602-0.62012-0.64596-0.64596-0.64596-1.6278z" fill="#f28c6f" aria-label="Peach"/></g></svg>
