<?xml version="1.0" encoding="UTF-8"?>
<!-- Created with Inkscape (http://www.inkscape.org/) -->
<svg width="830" height="270" version="1.1" viewBox="0 0 219.6 71.437" xml:space="preserve" xmlns="http://www.w3.org/2000/svg" xmlns:xlink="http://www.w3.org/1999/xlink"><defs><linearGradient id="linearGradient15" x1="116.83" x2="139.55" y1="51.858" y2="67.768" gradientUnits="userSpaceOnUse"><stop stop-color="#b66a22" offset="0"/><stop stop-color="#8f4e16" offset="1"/></linearGradient><linearGradient id="linearGradient17" x1="145.84" x2="220.78" y1="62.011" y2="41.929" gradientUnits="userSpaceOnUse"><stop stop-color="#2dbe66" offset="0"/><stop stop-color="#8ccb45" offset="1"/></linearGradient><linearGradient id="linearGradient19" x1="138.54" x2="138.54" y1="62.663" y2="245.75" gradientUnits="userSpaceOnUse"><stop stop-color="#f8b06f" offset="0"/><stop stop-color="#ff9866" offset=".50172"/><stop stop-color="#ff694d" offset="1"/></linearGradient><linearGradient id="linearGradient23" x1="95.448" x2="146.23" y1="153.05" y2="153.05" gradientUnits="userSpaceOnUse"><stop stop-color="#f9e1cc" stop-opacity=".99824" offset="0"/><stop stop-color="#f6d0b3" offset=".49655"/><stop stop-color="#f3c4a2" offset="1"/></linearGradient></defs><g transform="matrix(.26271 0 0 .26271 -4.3818 .57074)"><path d="m132.29 239.53c-6.2835-0.65001-16.264-4.8866-27.517-11.681-24.188-14.604-42.06-34.257-51.057-56.144-2.1171-5.1505-4.335-12.214-4.8992-15.603-0.08479-0.50933-0.37882-2.1167-0.65342-3.5719-0.93859-4.9741-1.1832-7.8784-1.1701-13.891 0.01128-5.1527 0.10863-6.5442 0.72403-10.349 1.2734-7.8734 2.951-13.623 5.876-20.14 1.9895-5.1366 5.3363-9.4434 8.3833-13.933 1.3318-1.9814 6.3104-7.4312 9.0746-9.7651 2.9233-2.4682 7.2821-5.4871 7.5908-5.6908 3.8741-2.5566 12.072-6.2215 12.835-6.4735 0.22014-0.07278 2.1913-0.75911 3.0309-0.91586 0.24031-0.04487 0.70548-0.1906 0.93002-0.2565 1.3862-0.40684 3.5812-1.0816 6.3559-1.5457 7.065-1.1819 9.0268-1.0424 17.346-0.05609 4.7061 0.55798 8.8899 2.3384 12.706 4.1788 3.7833 1.8248 8.6189 4.8407 8.637 5.2175 5e-3 0.10919-1.0918 0.74078-2.4379 1.4035-1.3461 0.66276-3.9357 2.2066-5.7547 3.4308-14.604 9.8283-26.166 25.725-32.229 44.312-2.7105 8.3099-3.9276 15.297-4.1941 24.077-0.14974 4.9332 0.07786 11.723 0.36583 10.914 0.06472-0.1819 0.29486-0.33073 0.51142-0.33073 0.2711 0 0.36726 0.21877 0.30868 0.70228-0.07908 0.65276-0.0091 0.70556 0.99197 0.74882 0.59238 0.0256 1.2175 0.13332 1.3891 0.23938 0.17238 0.10653 0.31202 0.0529 0.31202-0.11976 0-0.23713 0.09302-0.2354 0.38528 7e-3 0.21191 0.17587 0.50324 0.24686 0.64739 0.15777 0.15646-0.0967 0.30138 0.40072 0.35953 1.234 0.0536 0.76779 0.12071-1.2234 0.14919-4.4248 0.17252-19.396 5.3747-36.621 15.665-51.871 3.5534-5.2659 11.336-13.662 16.396-17.687 2.9625-2.3571 8.2434-5.867 11.377-7.5618 2.9352-1.5874 8.1124-3.8093 10.268-4.4066 8.5647-2.3736 10.192-2.602 18.572-2.6066 8.0391-0.0044 8.9242 0.1145 16.007 2.151 7.3704 2.1191 13.938 5.8028 19.956 11.194 2.3899 2.1406 6.1402 6.2247 7.3769 8.0333 0.41646 0.60905 1.2901 1.8813 1.9414 2.8272 3.9874 5.7906 7.1846 13.274 9.3831 21.96 1.0142 4.0074 1.2289 5.3598 1.5959 10.054 0.63696 8.1466 0.0412 16.846-1.6489 24.077-1.1802 5.0492-3.4334 11.964-5.102 15.658-1.9707 4.362-2.8484 6.1261-4.6555 9.3574-5.5836 9.9835-12.44 18.505-21.559 26.794-11.373 10.339-25.908 19.361-40.362 25.054-11.271 4.4394-17.962 5.8881-24.209 5.2419z" fill="url(#linearGradient19)"/><path d="m148.7 75.684c0-0.65221 4.3219-5.7028 8.1796-9.5587 5.7696-5.7669 12.142-10.514 19.866-14.798 3.4773-1.9288 10.17-4.9714 12.784-5.8116 0.55545-0.17855 0.95845-0.3761 0.89555-0.439-0.0629-0.0629-1.8836 0.3186-4.0461 0.84778-14.685 3.5936-26.035 9.9879-35.959 20.259-1.7462 1.8072-3.7366 4.0329-4.423 4.9461-1.233 1.6403-1.2503 1.6516-1.4301 0.93487-0.10014-0.399-0.0393-1.798 0.13527-3.109 0.93402-7.0153 3.2555-13.152 7.363-19.465 6.2792-9.6501 16.314-16.977 27.182-19.846 5.0964-1.3457 6.1037-1.4604 12.845-1.4633 6.7542-0.0029 7.9288 0.11968 12.776 1.333 6.3416 1.5874 16.363 6.0993 17.089 7.6942 0.57909 1.271-0.46367 4.2329-3.3371 9.4787-3.5832 6.5417-9.1772 13.209-14.08 16.781-2.3997 1.7483-6.8648 4.1454-9.7324 5.2248-2.6196 0.98602-7.5624 2.1641-10.414 2.4821-1.3966 0.15573-6.144 0.24745-10.702 0.20674-6.9525-0.0621-8.5691-2e-3 -10.689 0.39717-2.6812 0.50492-7.8833 1.9205-10.467 2.8482-2.7827 0.99921-3.8365 1.2897-3.8365 1.0577z" fill="url(#linearGradient17)"/><path d="m139.23 76.243c-0.18457-0.11715-0.68304-1.1153-1.1077-2.2182-1.9394-5.0365-4.7121-9.3757-8.3463-13.062-3.2923-3.3392-7.0236-5.7564-11.469-7.4295-2.2456-0.84525-3.4064-1.7644-3.7386-2.9602-1.1284-4.0626 1.7339-7.6684 5.8631-7.386 1.2537 0.08573 1.8037 0.30362 3.3073 1.3102 8.277 5.5411 15.618 16.414 17.831 26.41 0.57182 2.5829 0.65222 4.7784 0.19184 5.2387-0.35786 0.35786-2.02 0.42116-2.5316 0.09641z" fill="url(#linearGradient15)"/><path d="m140.47 78.871 5.8995 4.4359s-15.276 7.4204-27.156 23.218c-11.88 15.798-16.082 36.351-16.082 36.351s-2.0221 9.7947-1.7694 17.883c0.25276 8.0885 2.0853 20.379 2.812 23.318 0.7267 2.9384 3.7599 13.649 7.6146 21.232 3.8547 7.583 6.4771 12.322 8.3097 14.882 1.8326 2.5593 4.8973 6.8563 4.8973 6.8563s-12.972-15.919-16.726-23.337c-3.7534-7.4174-6.1663-13.673-6.1663-13.673s-3.3066-7.8642-4.7364-15.594c-1.4299-7.7302-2.4576-20.063-1.6086-26.497s1.2958-14.567 7.2834-28.374c5.9875-13.807 15.684-24.665 22.252-30.697 6.5684-6.0322 15.175-10.004 15.175-10.004z" fill="url(#linearGradient23)" style="mix-blend-mode:normal"/></g><g transform="translate(-31.448 -3.9321)"><path d="m196.59 30.735q0-0.58911 0.40308-0.97668 0.40307-0.38757 0.96118-0.38757 0.57361 0 0.97668 0.38757 0.40308 0.38757 0.40308 0.97668v16.356l8.6196 0.0155q0.57361 0 0.96118 0.38757t0.38757 0.96118q0 0.60461-0.38757 0.99219-0.38757 0.37207-0.96118 0.37207h-10.17q-0.0155 0-0.031 0 0-0.0155-0.0155-0.0155-0.4961-0.07751-0.82166-0.44958-0.32556-0.37207-0.32556-0.88367zm20.665 19.27q-1.5658 0-2.9301-0.58911-1.3643-0.60461-2.3874-1.6278-1.0077-1.0232-1.5968-2.403-0.58911-1.3798-0.58911-2.9456t0.58911-2.9456q0.58911-1.3798 1.5968-2.403 1.0232-1.0387 2.3874-1.6278 1.3643-0.60462 2.9301-0.60462 1.5658 0 2.9146 0.58911 1.3642 0.58911 2.3719 1.6123 1.0077 1.0077 1.5968 2.3719 0.58911 1.3643 0.62011 2.9146v6.1702q0 0.58911-0.40307 1.0077-0.40308 0.40308-0.99219 0.40308t-0.96118-0.40308q-0.37207-0.41858-0.37207-1.0077l-0.0155-0.21704q-0.97669 0.80615-2.1859 1.2557t-2.5735 0.44958zm0-2.744q1.0232 0 1.8914-0.37207 0.86817-0.38757 1.5038-1.0387 0.65112-0.66663 1.0077-1.5348 0.37207-0.88367 0.37207-1.8759 0-0.99219-0.37207-1.8604-0.35657-0.88367-1.0077-1.5348-0.63562-0.65112-1.5038-1.0232-0.86816-0.38757-1.8914-0.38757-1.0077 0-1.8759 0.38757-0.86816 0.37207-1.5038 1.0232t-1.0077 1.5348q-0.37207 0.86816-0.37207 1.8604 0 0.99219 0.37207 1.8759 0.37207 0.86816 1.0077 1.5348 0.63562 0.65112 1.5038 1.0387 0.86817 0.37207 1.8759 0.37207zm10.325-16.449q0-0.29456 0.10852-0.5426 0.10852-0.26355 0.29455-0.44958 0.18604-0.20154 0.43409-0.31006 0.24804-0.10852 0.5426-0.10852 0.58911 0 0.96118 0.41858 0.38757 0.40308 0.38757 0.99219v6.9453q0.27906-0.62012 0.77515-1.1472 0.5116-0.5426 1.1472-0.93018 0.65112-0.38757 1.3953-0.60462 0.75964-0.21704 1.5348-0.21704 1.5658 0 2.9456 0.60462 1.3798 0.58911 2.403 1.6278 1.0232 1.0232 1.6123 2.403 0.58911 1.3798 0.58911 2.9456t-0.58911 2.9456q-0.58912 1.3643-1.6123 2.3875-1.0232 1.0232-2.403 1.6278-1.3798 0.58911-2.9456 0.58911t-2.9456-0.58911q-1.3798-0.60461-2.4184-1.6278-1.0232-1.0232-1.6278-2.3875-0.58911-1.3798-0.58911-2.9456zm2.744 11.627q0 0.99219 0.37207 1.8759 0.38757 0.86816 1.0387 1.5193 0.65113 0.65112 1.5348 1.0387 0.88367 0.37207 1.8914 0.37207t1.8914-0.37207q0.88366-0.38757 1.5348-1.0387 0.65112-0.65112 1.0232-1.5193 0.37207-0.88367 0.37207-1.8759 0-1.0077-0.37207-1.8759-0.37207-0.88367-1.0232-1.5348-0.65113-0.65112-1.5348-1.0232-0.88367-0.37207-1.8914-0.37207t-1.8914 0.37207q-0.88366 0.37207-1.5348 1.0232-0.65112 0.65112-1.0387 1.5348-0.37207 0.86816-0.37207 1.8759z" fill="#2a1f1b" aria-label="Lab"/><path d="m105.79 37.207v-0.13953q0-1.5503 0.55811-2.9921 0.5581-1.4573 1.5348-2.4805 0.99219-1.0232 2.3254-1.6123 1.3488-0.60461 2.9146-0.60461 1.5503 0 2.9146 0.60461 1.3798 0.58911 2.403 1.6123 1.0232 1.0232 1.6123 2.4805 0.60461 1.4418 0.60461 2.9921 0 1.0387-0.27905 2.0154-0.26355 0.96118-0.75964 1.7983-0.48059 0.83716-1.1782 1.5348-0.68213 0.68213-1.5193 1.1782-0.83716 0.49609-1.7983 0.77515-0.96119 0.26355-1.9999 0.26355-1.3953 0-2.5115-0.55811-1.1007-0.5581-1.9844-1.4108l-0.062 5.7516q-0.0155 0.60462-0.38758 1.0232-0.37207 0.40308-0.97668 0.40308-0.58911 0-1.0077-0.40308-0.40308-0.41858-0.40308-1.0232zm7.4259 4.6044q0.97668 0 1.8448-0.37207 0.88367-0.38757 1.5348-1.0387 0.65113-0.65112 1.0232-1.5193 0.38757-0.86816 0.38757-1.8604 0-0.99219-0.38757-1.8293-0.37207-0.85266-1.0232-1.5503-0.65112-0.69763-1.5348-1.0387-0.86816-0.35657-1.8448-0.35657-0.97669 0-1.8294 0.37207t-1.4883 1.0852-1.0077 1.5658-0.37207 1.8293q0 0.97668 0.37207 1.8448 0.37207 0.85266 1.0077 1.4883t1.4883 1.0077 1.8294 0.37207zm11.875 1.8604q0.17053 0.79065 0.58911 1.4728 0.41858 0.66663 1.0232 1.1627 0.60461 0.49609 1.3488 0.77515 0.75964 0.27905 1.5968 0.27905 0.80615 0 1.3332-0.13953 0.5271-0.15503 1.0542-0.46509 0.43408-0.24805 0.82166-0.24805 0.27905 0 0.51159 0.12402 0.24805 0.10852 0.43409 0.31006 0.18603 0.18604 0.29455 0.44958t0.10852 0.5426q0 0.49609-0.37207 0.88367-0.37207 0.37207-1.0077 0.63562-0.62011 0.26355-1.4573 0.40308-0.82166 0.13953-1.7208 0.13953-1.5658 0-2.9611-0.58911-1.3798-0.60461-2.4184-1.6278-1.0232-1.0232-1.6278-2.403-0.58911-1.3798-0.58911-2.9456 0-1.5813 0.58911-2.9611 0.60461-1.3798 1.6278-2.403 1.0387-1.0232 2.4184-1.6123 1.3953-0.60461 2.9611-0.60461 1.5503 0 2.9301 0.58911 1.3798 0.58911 2.403 1.6123 1.0387 1.0232 1.6433 2.403 0.60461 1.3643 0.62012 2.9146 0 0.5581-0.37207 0.93018-0.37207 0.37207-0.96118 0.37207zm9.3483-2.2944q-0.13953-0.83716-0.57361-1.5503-0.41858-0.71313-1.0542-1.2402-0.62012-0.5271-1.4263-0.82166-0.79065-0.29456-1.6898-0.29456-0.91467 0-1.7053 0.31006-0.79065 0.29456-1.4108 0.83716-0.62012 0.5271-1.0232 1.2402-0.40308 0.71314-0.5426 1.5193zm11.736 8.6196q-1.5658 0-2.93-0.58911-1.3643-0.60461-2.3874-1.6278-1.0077-1.0232-1.5968-2.403t-0.58911-2.9456q0-1.5658 0.58911-2.9456t1.5968-2.403q1.0232-1.0387 2.3874-1.6278 1.3643-0.60461 2.93-0.60461 1.5658 0 2.9146 0.58911 1.3642 0.58911 2.3719 1.6123 1.0077 1.0077 1.5968 2.3719 0.58911 1.3643 0.62011 2.9146v6.1702q0 0.58911-0.40307 1.0077-0.40308 0.40308-0.99219 0.40308t-0.96118-0.40308q-0.37207-0.41858-0.37207-1.0077l-0.0155-0.21704q-0.97668 0.80615-2.1859 1.2557t-2.5735 0.44958zm0-2.744q1.0232 0 1.8914-0.37207 0.86817-0.38757 1.5038-1.0387 0.65112-0.66663 1.0077-1.5348 0.37207-0.88367 0.37207-1.8759 0-0.99219-0.37207-1.8604-0.35657-0.88367-1.0077-1.5348-0.63562-0.65112-1.5038-1.0232-0.86816-0.38757-1.8914-0.38757-1.0077 0-1.8758 0.38757-0.86816 0.37207-1.5038 1.0232t-1.0077 1.5348q-0.37207 0.86816-0.37207 1.8604 0 0.99219 0.37207 1.8759 0.37207 0.86816 1.0077 1.5348 0.63562 0.65112 1.5038 1.0387 0.86816 0.37207 1.8758 0.37207zm9.6273-4.7439q0-1.5968 0.58912-2.9921 0.58911-1.3953 1.6123-2.434 1.0387-1.0387 2.4185-1.6278 1.3953-0.60461 2.9921-0.60461 1.4883 0 2.8215 0.5271 1.3488 0.5271 2.3254 1.5038 0.24804 0.26355 0.37207 0.5581 0.12402 0.29456 0.12402 0.57361 0 0.31006-0.13953 0.57361-0.13952 0.24805-0.35656 0.41858-0.20154 0.17053-0.44959 0.26355-0.23254 0.09302-0.43408 0.09302-0.34107 0-0.65112-0.17053l-1.0852-0.77515q-0.69763-0.44958-1.3643-0.60461-0.66662-0.17053-1.4108-0.17053-0.96119 0.03101-1.7983 0.43408-0.83716 0.40308-1.4573 1.0697-0.60461 0.65112-0.96118 1.5038-0.34107 0.85266-0.34107 1.7673 0 0.93018 0.34107 1.7983 0.35657 0.86816 0.97668 1.5348 0.63562 0.65112 1.4883 1.0542 0.85267 0.40308 1.8759 0.40308 0.69763 0 1.3488-0.15503 0.65113-0.17053 1.3022-0.62012l1.0852-0.75964q0.15502-0.07751 0.32556-0.12402 0.17053-0.06201 0.34106-0.06201 0.20154 0 0.43408 0.09302 0.24805 0.09302 0.44959 0.27905 0.20154 0.17053 0.32556 0.41858 0.13953 0.24805 0.13953 0.55811 0 0.29456-0.12403 0.58911-0.10852 0.29456-0.35656 0.5426-0.96119 0.97668-2.3254 1.5038-1.3488 0.5116-2.8215 0.5116-1.5813 0-2.9611-0.57361-1.3798-0.58911-2.4184-1.5968-1.0387-1.0077-1.6433-2.3719-0.58912-1.3643-0.58912-2.9301zm27.192-0.27905v-0.06201q0-0.94568-0.29455-1.7828-0.29456-0.83716-0.83716-1.4573-0.5426-0.63562-1.3178-0.99219-0.75964-0.35657-1.7053-0.35657t-1.8294 0.34106q-0.86816 0.34106-1.5503 0.94568-0.68213 0.60461-1.1007 1.4263-0.40308 0.82166-0.40308 1.7673v6.3872q0 0.57361-0.40307 0.97668-0.38757 0.38757-0.96118 0.38757-0.58911 0-0.99219-0.38757-0.38757-0.40308-0.38757-0.97668v-17.658q0-0.29456 0.10852-0.5426 0.10852-0.26355 0.29455-0.44958 0.18604-0.18604 0.43408-0.29456 0.26355-0.10852 0.54261-0.10852 0.27905 0 0.5271 0.10852 0.24804 0.10852 0.43408 0.29456 0.18603 0.18604 0.29455 0.44958 0.10852 0.24805 0.10852 0.5426v6.4802q0.93018-1.1162 2.1704-1.7673 1.2557-0.65112 2.713-0.65112 1.5038 0 2.775 0.57361 1.2712 0.57361 2.1704 1.5658 0.91468 0.99219 1.4263 2.3254 0.5116 1.3333 0.5116 2.837v6.3252q0 0.58911-0.40308 0.97668-0.40307 0.37207-0.97668 0.37207-0.55811 0-0.96118-0.37207-0.38758-0.38757-0.38758-0.97668z" fill="#f28c6f" aria-label="Peach"/></g></svg>
